# xmcd
#
# Track frame offsets:
#	150
#	17280
#	34232
#	51019
#	67310
#	84954
#	100543
#	117934
#	136173
#	150577
#	166750
#	175888
#	197582
#
# Disc length: 2827 seconds
#
# Revision: 1
# Processed by: cddbd v1.5.2PL0 Copyright (c) Steve Scherf et al.
# Submitted via: audiograbber 1.83.01
#
DISCID=980b090d
DTITLE=Blood Red Throne - Affiliated With The Suffering
DYEAR=2004
DGENRE=Death Metal
TTITLE0=Unleashing Hell
TTITLE1=A Dream Of Death
TTITLE2=Bleeders Lament
TTITLE3=Mandatory Homicide/Death Inc.
TTITLE4=Razor Jack
TTITLE5=Chaos Rising!
TTITLE6=Gather The Dead
TTITLE7=Affiliated With The Suffering
TTITLE8=Malediction
TTITLE9=Mercy Killings
TTITLE10=Deadly Intentions
TTITLE11=Cryptic Realms
TTITLE12=Hate Tank
EXTD=
EXTT0=
EXTT1=
EXTT2=
EXTT3=
EXTT4=
EXTT5=
EXTT6=
EXTT7=
EXTT8=
EXTT9=
EXTT10=
EXTT11=
EXTT12=
PLAYORDER=
